# xmcd CD database file
#
# Track frame offsets:
#	183
#	22828
#	43623
#	58350
#	77695
#	94648
#	110858
#	128020
#	145193
#	166043
#	187185
#	207853
#
# Disc length: 2925 seconds
#
# Revision: 5
# Processed by: cddbd v1.5.2PL0 Copyright (c) Steve Scherf et al.
# Submitted via: CDex 1.70beta2
#
DISCID=a10b6b0c
DTITLE=Manu Katché - It's About Time
DYEAR=1991
DGENRE=Jazz
TTITLE0=Cry Of Passion
TTITLE1=Change
TTITLE2=Warm Doorway
TTITLE3=Who I Am
TTITLE4=Go Getter
TTITLE5=Lost In You
TTITLE6=Silence
TTITLE7=My Inner Heart
TTITLE8=No Country
TTITLE9=She Is
TTITLE10=25th Of July
TTITLE11=Tell Me Why
EXTD=1991 YEAR: 1991
EXTT0=
EXTT1=
EXTT2=
EXTT3=
EXTT4=
EXTT5=Manu Katche
EXTT6=
EXTT7=
EXTT8=
EXTT9=
EXTT10=
EXTT11=
PLAYORDER=
